HIERARCHY
ROOT Hips
{
	OFFSET 0.000000 0.000000 0.000000
	CHANNELS 6 Xposition Yposition Zposition Xrotation Yrotation Zrotation
	JOINT LeftUpLeg_virtual
	{
		OFFSET 0.000000 0.000000 0.000000
		CHANNELS 3 Xrotation Yrotation Zrotation
		JOINT LeftUpLeg
		{
			OFFSET 11.394100 -6.187798 -0.413800
			CHANNELS 3 Xrotation Yrotation Zrotation
			JOINT LeftLeg
			{
				OFFSET 0.430247 -32.302673 3.732800
				CHANNELS 3 Xrotation Yrotation Zrotation
				JOINT LeftFoot
				{
					OFFSET -0.430247 -48.264931 -6.423300
					CHANNELS 3 Xrotation Yrotation Zrotation
					JOINT LeftToeBase
					{
						OFFSET 4.230900 -16.068199 23.438400
						CHANNELS 3 Xrotation Yrotation Zrotation
						JOINT LeftToe_End
						{
							OFFSET 4.510700 0.695400 19.974600
							CHANNELS 3 Xrotation Yrotation Zrotation
							End Site
							{
								OFFSET 0 0 0
							}
						}
					}
				}
			}
		}
	}
	JOINT RightUpLeg_virtual
	{
		OFFSET 0.000000 0.000000 0.000000
		CHANNELS 3 Xrotation Yrotation Zrotation
		JOINT RightUpLeg
		{
			OFFSET -11.333700 -6.187798 -0.413800
			CHANNELS 3 Xrotation Yrotation Zrotation
			JOINT RightLeg
			{
				OFFSET -0.430392 -32.302628 3.733000
				CHANNELS 3 Xrotation Yrotation Zrotation
				JOINT RightFoot
				{
					OFFSET 0.430392 -48.264973 -6.423500
					CHANNELS 3 Xrotation Yrotation Zrotation
					JOINT RightToeBase
					{
						OFFSET -4.230900 -16.068199 23.438400
						CHANNELS 3 Xrotation Yrotation Zrotation
						JOINT RightToe_End
						{
							OFFSET -4.510700 0.695400 19.974600
							CHANNELS 3 Xrotation Yrotation Zrotation
							End Site
							{
								OFFSET 0 0 0
							}
						}
					}
				}
			}
		}
	}
	JOINT Spine_virtual
	{
		OFFSET 0.000000 0.000000 0.000000
		CHANNELS 3 Xrotation Yrotation Zrotation
		JOINT Spine
		{
			OFFSET -0.002400 12.777504 0.315300
			CHANNELS 3 Xrotation Yrotation Zrotation
			JOINT Spine1
			{
				OFFSET -0.002067 5.816869 0.032633
				CHANNELS 3 Xrotation Yrotation Zrotation
				JOINT Spine1_split
				{
					OFFSET -0.002067 5.816869 0.032633
					CHANNELS 3 Xrotation Yrotation Zrotation
					JOINT Spine2
					{
						OFFSET -0.002067 5.816869 0.032633
						CHANNELS 3 Xrotation Yrotation Zrotation
						JOINT Neck_virtual
						{
							OFFSET 0.000000 0.000000 0.000000
							CHANNELS 3 Xrotation Yrotation Zrotation
							JOINT Neck
							{
								OFFSET -0.003700 21.199493 -0.826900
								CHANNELS 3 Xrotation Yrotation Zrotation
								JOINT Head
								{
									OFFSET 0.000000 20.442200 4.834800
									CHANNELS 3 Xrotation Yrotation Zrotation
									JOINT HeadTop_End
									{
										OFFSET 0.000000 34.668396 4.968400
										CHANNELS 3 Xrotation Yrotation Zrotation
										End Site
										{
											OFFSET 0 0 0
										}
									}
								}
							}
						}
						JOINT LeftShoulder_virtual
						{
							OFFSET 0.000000 0.000000 0.000000
							CHANNELS 3 Xrotation Yrotation Zrotation
							JOINT LeftShoulder
							{
								OFFSET 3.288150 8.794197 -1.372250
								CHANNELS 3 Xrotation Yrotation Zrotation
								JOINT LeftShoulder_split
								{
									OFFSET 3.288150 8.794197 -1.372250
									CHANNELS 3 Xrotation Yrotation Zrotation
									JOINT LeftArm
									{
										OFFSET 11.953299 -2.279007 -0.146200
										CHANNELS 3 Xrotation Yrotation Zrotation
										JOINT LeftForeArm
										{
											OFFSET 18.448900 0.000000 0.000000
											CHANNELS 3 Xrotation Yrotation Zrotation
											JOINT LeftHand
											{
												OFFSET 29.527798 0.000000 0.000000
												CHANNELS 3 Xrotation Yrotation Zrotation
												End Site
												{
													OFFSET 0 0 0
												}
											}
										}
									}
								}
							}
						}
						JOINT RightShoulder_virtual
						{
							OFFSET 0.000000 0.000000 0.000000
							CHANNELS 3 Xrotation Yrotation Zrotation
							JOINT RightShoulder
							{
								OFFSET -3.249400 8.794197 -1.372250
								CHANNELS 3 Xrotation Yrotation Zrotation
								JOINT RightShoulder_split
								{
									OFFSET -3.249400 8.794197 -1.372250
									CHANNELS 3 Xrotation Yrotation Zrotation
									JOINT RightArm
									{
										OFFSET -11.953299 -2.279007 -0.146200
										CHANNELS 3 Xrotation Yrotation Zrotation
										JOINT RightForeArm
										{
											OFFSET -18.448900 0.000000 0.000000
											CHANNELS 3 Xrotation Yrotation Zrotation
											JOINT RightHand
											{
												OFFSET -29.527802 0.000000 0.000000
												CHANNELS 3 Xrotation Yrotation Zrotation
												End Site
												{
													OFFSET 0 0 0
												}
											}
										}
									}
								}
							}
						}
					}
				}
			}
		}
	}
}
MOTION
Frames: 4
Frame Time: 0.03333333
-3.137691 86.697678 -0.823189 0.000000 0.000000 0.000000 -8.384242 -63.112778 -3.792952 -25.991383 6.858861 27.157828 39.032089 -5.778590 -5.795966 -11.299358 -7.652199 -8.756384 -3.768035 -0.082647 0.420285 0.000000 0.000000 0.000000 -10.975551 -57.766632 -3.576944 -24.214568 -13.615494 -22.844618 40.608272 1.827279 -9.812120 -14.250111 6.098463 16.718437 -12.119492 2.590047 -0.304836 0.000000 0.000000 0.000000 -9.990064 -61.762348 -4.239215 10.001201 -1.401318 -0.741506 5.005968 -0.151421 -5.088905 1.639318 -10.475448 2.190463 0.000000 0.000000 0.000000 6.710584 0.353147 -4.362402 8.834536 21.595339 10.507910 12.964420 28.549627 -18.548012 0.000000 0.000000 0.000000 5.214955 -0.101248 -3.714180 -9.562229 -7.505834 -6.757696 0.730804 -3.741968 -2.065547 -18.731777 23.177342 -25.029121 11.912956 -44.374052 4.037355 0.000000 0.000000 0.000000 3.082868 -0.948665 -4.162747 -9.850439 2.356480 7.261482 -3.903128 1.631025 3.446521 -45.523457 -17.317955 42.587565 175.960262 64.923871 -160.952875 0.000000 0.000000 0.000000 
-3.632693 87.375122 0.615311 0.000000 0.000000 0.000000 -9.227987 -62.344239 -4.382899 -24.857068 7.619144 26.503067 38.321104 -6.008651 -5.370987 -11.015593 -7.748849 -8.053152 -3.730032 -0.076499 0.806240 0.000000 0.000000 0.000000 -12.023325 -57.255837 -4.388914 -23.359136 -13.399717 -23.114146 40.235220 1.843714 -9.617920 -13.250235 6.110264 19.692660 -15.111336 2.796944 -1.371203 0.000000 0.000000 0.000000 -11.969824 -61.277124 -5.512846 9.416246 -1.788947 -0.183331 4.636099 -0.337657 -4.491384 0.301309 -9.354139 1.796933 0.000000 0.000000 0.000000 5.702784 0.147369 -3.829384 10.011138 21.019972 10.666782 12.816588 27.734994 -17.468243 0.000000 0.000000 0.000000 4.659401 -0.300697 -3.411769 -9.388343 -7.651712 -7.979695 1.320424 -3.252811 -3.363623 -18.894209 21.624860 -27.358847 14.183303 -47.816126 6.129867 0.000000 0.000000 0.000000 2.951606 -1.022504 -3.714077 -10.016419 1.343566 8.745743 -3.259214 0.867157 2.185114 -41.781394 -16.013508 38.901831 173.322675 66.084546 -157.762002 0.000000 0.000000 0.000000 
-4.457439 88.728378 2.226177 0.000000 0.000000 0.000000 -10.465901 -59.950292 -5.185521 -22.208263 8.288955 24.091722 35.924039 -5.514139 -4.161789 -10.535474 -6.857676 -7.824828 -3.604061 0.164974 0.909994 0.000000 0.000000 0.000000 -12.806444 -55.164938 -5.121103 -20.075741 -14.701125 -23.341692 37.800022 0.687186 -9.194895 -12.858294 5.540598 21.041438 -14.018859 3.295364 -2.924113 0.000000 0.000000 0.000000 -13.243762 -59.523760 -6.431882 8.194876 -2.324041 0.769871 3.714230 -0.658773 -2.985744 -0.334967 -7.050129 1.296699 0.000000 0.000000 0.000000 3.938624 -0.200076 -2.302715 10.401794 19.509705 11.434161 13.864489 24.848134 -16.518898 0.000000 0.000000 0.000000 3.446063 -0.523336 -2.047744 -9.308051 -7.051528 -9.876609 1.084861 -2.081124 -4.595795 -16.786580 18.928795 -30.752169 18.837500 -53.487181 10.020429 0.000000 0.000000 0.000000 2.068653 -1.240465 -2.336413 -9.668627 0.040632 10.759714 -2.984322 1.902885 1.142497 -37.901198 -19.760275 29.358219 -175.272968 60.512737 -167.815084 0.000000 0.000000 0.000000 
-5.394641 90.318642 3.857479 0.000000 0.000000 0.000000 -11.991518 -56.765046 -6.091873 -18.430304 8.432707 20.254641 32.568186 -4.550351 -2.300841 -10.244805 -5.137971 -8.187920 -3.643981 0.623991 0.601410 0.000000 0.000000 0.000000 -13.193502 -51.869891 -5.481485 -15.143969 -17.215473 -23.487678 34.367576 -1.670470 -8.648964 -12.104157 4.393888 20.594923 -10.786789 3.827369 -4.102468 0.000000 0.000000 0.000000 -13.926950 -56.565134 -7.017022 6.758648 -2.834683 1.830241 2.439888 -0.918898 -0.943697 -0.168443 -4.672427 0.871616 0.000000 0.000000 0.000000 1.748199 -0.521404 -0.185992 9.373021 17.432531 12.905787 15.615378 20.671535 -15.896140 0.000000 0.000000 0.000000 1.745268 -0.660816 0.025304 -9.333417 -5.839432 -11.859254 0.526179 -0.453554 -5.098442 -12.787026 15.873382 -33.703633 26.377777 -59.804754 16.340970 0.000000 0.000000 0.000000 0.576108 -1.497097 -0.394956 -8.882301 -1.201320 12.955446 -2.512963 4.282160 0.751025 -35.749087 -28.596399 16.847421 -162.787150 49.815261 -178.454729 0.000000 0.000000 0.000000 
